<svg width="50" height="50" viewBox="0 0 50 50" fill="none" xmlns="http://www.w3.org/2000/svg">
<g clip-path="url(#clip0_1_9)">
<path d="M40.4194 49.123L22.7385 31.305C21.6877 31.6705 20.6369 31.9674 19.5861 32.1959C18.5353 32.4243 17.4616 32.5385 16.3651 32.5385C11.9335 32.5385 8.16427 30.9966 5.05755 27.9127C1.95082 24.8288 0.397461 21.0711 0.397461 16.6394C0.397461 15.2231 0.580209 13.8411 0.945706 12.4933C1.3112 11.1455 1.83661 9.87771 2.52191 8.68985L12.4589 18.6268L18.7637 12.7332L8.55261 2.52208C9.74048 1.83678 10.9969 1.29995 12.3218 0.911613C13.6467 0.523272 14.9945 0.329102 16.3651 0.329102C20.8881 0.329102 24.7373 1.91673 27.9125 5.09199C31.0878 8.26724 32.6754 12.1164 32.6754 16.6394C32.6754 17.7359 32.5612 18.8095 32.3328 19.8604C32.1043 20.9112 31.8074 21.962 31.4419 23.0128L49.1913 40.6937C49.6939 41.1962 49.9452 41.8016 49.9452 42.5098C49.9452 43.2179 49.6939 43.8233 49.1913 44.3258L43.983 49.123C43.4804 49.6255 42.8865 49.8768 42.2012 49.8768C41.5159 49.8768 40.922 49.6255 40.4194 49.123ZM42.3383 45.2167L45.0795 42.4755L26.3706 23.7666C27.1016 22.8072 27.6498 21.6764 28.0153 20.3743C28.3808 19.0722 28.5636 17.8273 28.5636 16.6394C28.5636 13.2129 27.2958 10.3117 24.7601 7.93601C22.2245 5.56028 19.3348 4.34957 16.091 4.30388L23.0126 11.3625C23.4238 11.7737 23.6294 12.2763 23.6294 12.8702C23.6294 13.4642 23.4238 13.9667 23.0126 14.3779L13.9665 22.8757C13.5554 23.2869 13.0528 23.4925 12.4589 23.4925C11.8649 23.4925 11.3624 23.2869 10.9512 22.8757L4.30371 16.2968C4.44077 19.8147 5.68575 22.7158 8.03863 25.0002C10.3915 27.2845 13.167 28.4267 16.3651 28.4267C17.5073 28.4267 18.718 28.2439 19.9972 27.8784C21.2765 27.5129 22.3958 26.9647 23.3552 26.2337L42.3383 45.2167Z" fill="#2487CE"/>
</g>
<defs>
<clipPath id="clip0_1_9">
<rect width="50" height="50" fill="white"/>
</clipPath>
</defs>
</svg>
